<?xml version="1.0" encoding="UTF-8"?>
<svg width="115px" height="114px" viewBox="0 0 115 114" version="1.1" xmlns="http://www.w3.org/2000/svg" xmlns:xlink="http://www.w3.org/1999/xlink">
    <!-- Generator: Sketch 42 (36781) - http://www.bohemiancoding.com/sketch -->
    <title>Rufbus</title>
    <desc>Created with Sketch.</desc>
    <defs></defs>
    <g id="Page-1" stroke="none" stroke-width="1" fill="none" fill-rule="evenodd">
        <g id="Rufbus">
            <path d="M57.5,0.5 C88.7,0.5 114.2,26 114.2,57.2 C114.2,88.4 88.7,113.9 57.5,113.9 C26.3,113.9 0.8,88.4 0.8,57.2 C0.8,26 26.3,0.5 57.5,0.5" id="Shape" fill="#FBBA00"></path>
            <g id="Group" transform="translate(11.000000, 9.000000)" fill-rule="nonzero" fill="#1D1D1B">
                <path d="M84.1,19.5 L84,19.1 C83.8,17.7 83.4,16.4 82.9,15.1 C82.3,13.9 81.7,12.8 80.9,11.9 C74.6,4.1 64.6,0.9 46.6,0.9 C25.3,0.9 15.5,8.8 13,11.2 C12.6,11.6 12.3,11.9 12.3,12 C11.5,13 10.8,14.1 10.3,15.3 C9.7,16.6 9.3,17.9 9.2,19.3 L9.1,20 L9.1,23 C9.1,25.3 11,27.2 13.3,27.2 L26.7,27.2 C27.7,27.2 28.8,26.8 29.6,26 C30.4,25.2 30.9,24.1 30.9,23 L30.9,15.9 L32.4,15.5 C35.8,14.6 40.4,13.3 46.6,13.3 C52.9,13.3 57.5,14.6 60.8,15.5 L62.3,15.9 L62.3,23 C62.3,25.3 64.2,27.2 66.5,27.2 L79.9,27.2 C80.9,27.2 82,26.8 82.8,26 C83.6,25.2 84.1,24.1 84.1,23 L84.1,19.5 Z" id="Shape"></path>
                <path d="M86.7,28.1 C86.5,28.4 86.2,28.7 85.9,29 C84.2,30.6 82.1,31.5 79.8,31.5 L66.4,31.5 C63.6,31.5 61.1,30.1 59.5,28.1 L33.4,28.1 C33.2,28.4 32.9,28.7 32.6,29 C30.9,30.6 28.8,31.5 26.5,31.5 L13.1,31.5 C10.3,31.5 7.8,30.2 6.2,28.1 L0.4,28.1 L0.4,70.4 L92.5,70.4 L92.5,28.1 L86.7,28.1 Z" id="Shape"></path>
                <g transform="translate(21.000000, 73.000000)" id="Shape">
                    <path d="M26,8.3 C30.4,8.3 34.7,6.9 38.3,4.3 L39.5,3.4 L37.3,1.2 L36.4,0.5 L35.5,1.1 C32.7,3.1 29.4,4.1 26,4.1 L26,4.1 C22.4,4.1 18.9,2.9 15.9,0.8 L15.7,0.6 L12.7,3.6 L13,3.8 C16.7,6.7 21.2,8.3 26,8.3 Z"></path>
                    <path d="M25.2,16.5 L25.2,16.5 C32.4,16.5 39.3,13.9 44.7,9.1 L45,8.9 L42,5.9 L41.8,6.1 C37.2,10.1 31.3,12.3 25.3,12.3 L25.3,12.3 C19.8,12.3 14.3,10.4 9.8,6.9 L9.6,6.7 L6.6,9.7 L6.9,9.9 C12,14.2 18.5,16.5 25.2,16.5 Z"></path>
                    <path d="M47.7,11.6 L47.5,11.8 C41.3,17.4 33.3,20.5 25,20.5 L25,20.5 C17.3,20.5 9.8,17.8 3.8,12.9 L3.6,12.7 L0.6,15.7 L0.9,15.9 C7.7,21.6 16.2,24.7 25.1,24.7 C34.5,24.7 43.6,21.2 50.5,14.8 L50.8,14.6 L47.7,11.6 Z"></path>
                </g>
            </g>
            <g id="Group" transform="translate(18.000000, 44.000000)" fill="#FFFFFF">
                <path d="M77.2,7.7 C74,6.7 71.6,6.3 70,6.3 C66.4,6.3 64.7,7.2 64.7,9.1 C64.7,10.3 66,11.3 68.5,12 C72.2,13.1 74.5,14 75.5,14.6 C78,16.2 79.3,18.5 79.3,21.5 C79.3,24.7 77.9,27.1 75.1,28.7 C72.7,30 69.7,30.7 66,30.7 C63.4,30.7 60.1,30.2 56.2,29.2 L56.9,23.1 C60.1,24.3 63,24.9 65.5,24.9 C68.9,24.9 70.7,23.9 70.7,22 C70.7,20.7 69.4,19.6 66.9,18.7 C62.9,17.3 60.5,16.4 59.9,16.1 C57.4,14.6 56.1,12.5 56.1,9.7 C56.1,6.5 57.5,4.2 60.3,2.6 C62.6,1.3 65.6,0.7 69.3,0.7 C71.4,0.7 74.3,1.1 77.9,1.9 L77.2,7.7" id="Shape"></path>
                <path d="M27.2,1.6 L35.2,1.6 L35.2,19.7 C35.2,21.3 35.6,22.6 36.4,23.6 C37.3,24.7 38.6,25.2 40.3,25.2 C43.5,25.2 45.1,23.1 45.1,19 L45.1,1.7 L53.2,1.7 L53.2,20 C53.2,23.5 51.9,26.3 49.3,28.2 C46.9,30 43.8,30.8 39.9,30.8 C36.4,30.8 33.5,29.9 31.1,28.2 C28.5,26.3 27.2,23.8 27.2,20.6 L27.2,1.6 L27.2,1.6 Z" id="Shape"></path>
                <path d="M18.5,15.5 C20.3,14.9 21.6,14 22.4,13 C23.2,11.9 23.6,10.5 23.6,8.6 C23.6,6.2 22.6,4.4 20.6,3.2 C18.9,2.1 16.8,1.6 14.3,1.6 L0.9,1.6 L0.9,30.2 L12.4,30.2 C20.4,30.2 24.5,27.6 24.5,22.6 C24.5,18.7 22.5,16.4 18.5,15.5 Z M8,6.8 L11.4,6.8 C12.5,6.8 13.4,7.1 14.3,7.6 C15.2,8.2 15.7,9 15.7,9.9 C15.7,11 15.2,11.8 14.1,12.4 C13.2,12.9 12.2,13.1 11,13.1 L8,13.1 L8,6.8 L8,6.8 Z M15.3,23.8 C14.5,24.4 13.6,24.8 12.6,24.8 L8,24.8 L8,18.2 L11.4,18.2 C14.8,18.2 16.5,19.3 16.5,21.5 C16.4,22.4 16.1,23.2 15.3,23.8 Z" id="Shape"></path>
            </g>
        </g>
    </g>
</svg>