<?xml version="1.0" encoding="utf-8"?>
<!-- Generator: Adobe Illustrator 23.0.6, SVG Export Plug-In . SVG Version: 6.00 Build 0)  -->
<svg version="1.1" id="Ebene_1" xmlns="http://www.w3.org/2000/svg" xmlns:xlink="http://www.w3.org/1999/xlink" x="0px" y="0px"
	 viewBox="0 0 212.1 185" style="enable-background:new 0 0 212.1 185;" xml:space="preserve">
<style type="text/css">
	.st0{fill:none;}
	.st1{fill:#A41977;}
	.st2{fill:#FFFFFF;}
</style>
<rect x="142.4" y="53.4" class="st0" width="207.4" height="78.1"/>
<g>
	<g>
		<g>
			<path class="st1" d="M133.2,53.8l-11.5-15.3c-2.4-3.2-6.2-5.1-10.2-5.1H42.4c-4.9,0-9,4-9,9v34.4c0,4.9,4,9,9,9h41.4
				c-1.9,5.3-3,10.9-3,16.8c0,27,21.9,48.9,48.9,48.9s48.9-21.9,48.9-48.9C178.7,76.7,158.6,55.6,133.2,53.8z M113.7,113.3
				c-1.1,2.6-3.1,4-5.7,4.7c-1.3,0.3-2.6,0.5-3.9,0.5c-4,0-8.1,0-12.1,0h-0.5v-14.9V86.2H92c3.9,0,7.7,0,11.6,0
				c1.6,0,3.1,0.1,4.6,0.5c0.5,0.1,0.9,0.3,1.4,0.5c2.4,1,3.9,2.7,4.3,5.3c0.4,2.4,0.1,4.7-1.5,6.7c-0.9,1.1-2.1,1.8-3.4,2.3
				c-0.3,0.1-0.7,0.2-1.1,0.4c0.3,0.1,0.5,0.1,0.7,0.2c1.5,0.4,2.9,1,4,2.2c0.9,1,1.5,2.2,1.7,3.5
				C114.6,109.5,114.5,111.5,113.7,113.3z M111.6,80.1H86.3H42.4c-1.8,0-3.3-1.5-3.3-3.3V42.4c0-1.8,1.5-3.3,3.3-3.3h69.2
				c2.2,0,4.3,1,5.6,2.8l8.9,11.9l2.8,3.8c0.9,1.2,0.9,2.8,0,3.9l-11.8,15.7C115.8,79,113.8,80.1,111.6,80.1z M143.8,106.5
				c0,2.2-0.3,4.4-1.2,6.4c-1.3,3-3.7,4.8-6.9,5.6c-1.9,0.5-3.8,0.6-5.7,0.4c-2.4-0.2-4.8-0.8-6.8-2.3c-1.7-1.3-2.7-3-3.4-4.9
				c-0.5-1.5-0.8-3.1-0.8-4.8c0-6.8,0-13.6,0-20.4v-0.5c2.8,0,5.5,0,8.3,0c0.1,0,0.1,0,0.2,0v0.5c0,6.8,0,13.6,0,20.4
				c0,1.2,0.1,2.3,0.6,3.4c0.6,1.5,1.6,2.2,3.3,2.1c0.7,0,1.4-0.1,2-0.6c0.8-0.6,1.2-1.4,1.4-2.3c0.2-1,0.3-2,0.3-3
				c0-6.7,0-13.3,0-20c0-0.5,0-0.5,0.5-0.5c2.5,0,5.1,0,7.6,0c0.4,0,0.4,0.1,0.4,0.4C143.8,93.2,143.9,99.9,143.8,106.5z
				 M168.6,87.4c-0.1,0.6-0.1,1.2-0.1,1.8c-0.1,1.3-0.2,2.7-0.2,4c-0.9-0.3-1.7-0.6-2.6-0.9c-1.4-0.4-2.8-0.7-4.3-0.6
				c-0.7,0-1.4,0.2-2.1,0.4c-1.1,0.4-1.8,1.2-1.8,2.4c-0.1,1.1,0.3,2,1.3,2.6c1.3,0.7,2.7,1.4,4,2c1.3,0.6,2.6,1.2,3.8,1.9
				c2.2,1.3,3.5,3.2,3.8,5.8c0.3,2.3,0,4.5-1,6.6c-1.2,2.4-3.3,3.9-5.8,4.8c-1.6,0.5-3.2,0.8-4.8,0.8c-3.1,0.1-6.2-0.4-9.2-1.1
				c-0.1,0-0.2-0.1-0.3-0.1c0.2-2.4,0.3-4.7,0.5-7c0.9,0.3,1.7,0.7,2.6,1c1.8,0.6,3.7,1,5.6,0.8c1.1-0.1,2.2-0.4,2.9-1.4
				c0.9-1.3,1-3.6-0.8-4.5c-1.1-0.6-2.4-1.1-3.6-1.6c-1.5-0.6-3.1-1.3-4.4-2.3c-1.8-1.3-2.9-3.1-3.1-5.3c-0.1-1.1-0.2-2.3-0.1-3.4
				c0.1-1.7,0.7-3.2,1.8-4.5c1.5-1.9,3.6-2.9,5.9-3.5c2-0.5,4-0.5,6-0.4c2,0.1,3.9,0.4,5.8,1.1C168.6,86.9,168.7,87,168.6,87.4z"/>
			<path class="st1" d="M100.1,99.1c0.9,0,1.8,0,2.7-0.2c1.3-0.2,2.2-0.9,2.5-2.3c0.1-0.5,0.2-1.1,0.1-1.6c-0.1-1.5-0.9-2.6-2.3-2.9
				C102.2,92,101,92,99.9,92c0,0,0,0.1,0,0.1c0,0,0,0,0,0.1c0,2.2,0,4.5,0,6.7C99.8,99,99.9,99.1,100.1,99.1z"/>
			<path class="st1" d="M103.5,105.1c-1.2-0.2-2.4-0.2-3.6-0.2v7.5c1.1,0,2.2,0.1,3.3,0c1.3-0.1,2.2-0.8,2.7-2.1
				c0.3-0.8,0.3-1.7,0.2-2.5C105.8,106.5,105,105.3,103.5,105.1z"/>
			<polygon class="st1" points="64.1,48.1 48,48.1 48,52.8 52.9,52.8 52.9,71.2 59.1,71.2 59.1,52.8 64.1,52.8 			"/>
			<path class="st1" d="M79,60c0-3.5-1.2-6.4-7.2-6.4c-2.9,0-5,0.6-6.4,1.1l0.2,4.3c1.3-0.8,3.1-1.6,4.9-1.6c2.3,0,3.2,1.3,3.2,2.3
				v0.5h-1.5c-6,0-8.8,2-8.8,5.9c0,3.3,2.2,5.5,5.2,5.5c2.1,0,3.4-0.9,5.1-2.8c0,0.8,0.1,1.6,0.2,2.4h5.3c-0.1-1-0.2-2.4-0.2-3.8V60
				z M73.7,63.4c0,1.6-0.3,4.4-3,4.4c-1.2,0-2-0.6-2-2.1c0-2,1.7-2.8,4.4-2.8h0.7V63.4z"/>
			<polygon class="st1" points="93.1,61.9 97.9,54 91.9,54 88,60.9 88,60.9 88,46.4 82,46.4 82,71.2 88,71.2 88,63.1 88,63.1 
				91.7,71.2 92.2,71.2 98.3,71.2 96,67.2 			"/>
			<path class="st1" d="M109.9,67.4c-1.1,0-1.9-0.6-1.9-2.1v-6.5V58h1.7h1.6v-0.7V54h-3.3v-5.5l-5.9,1.8V54h-2.9v4h2.9v4.3v4.2
				c0,3.2,2.2,5,5.5,5c1.7,0,3.2-0.2,3.9-0.4l-0.2-4C111,67.3,110.5,67.4,109.9,67.4z"/>
		</g>
		<g>
			<path class="st2" d="M68.6,65.7c0,1.5,0.8,2.1,2,2.1c2.7,0,3-2.8,3-4.4v-0.6H73C70.4,62.9,68.6,63.7,68.6,65.7z"/>
			<path class="st2" d="M128.9,57.6l-2.8-3.8l-8.9-11.9c-1.3-1.8-3.4-2.8-5.6-2.8H42.4c-1.8,0-3.3,1.5-3.3,3.3v34.4
				c0,1.8,1.5,3.3,3.3,3.3h43.9h25.2c2.2,0,4.3-1,5.6-2.8l11.8-15.7C129.8,60.4,129.8,58.8,128.9,57.6z M59.1,71.2h-6.2V52.8h-5
				v-4.7h16.1v4.7h-4.9V71.2z M73.9,71.2c-0.1-0.8-0.2-1.6-0.2-2.4c-1.7,1.9-3.1,2.8-5.1,2.8c-3,0-5.2-2.2-5.2-5.5
				c0-3.8,2.9-5.9,8.8-5.9h1.5v-0.5c0-1.1-0.9-2.3-3.2-2.3c-1.8,0-3.7,0.8-4.9,1.6l-0.2-4.3c1.4-0.5,3.6-1.1,6.4-1.1
				c6,0,7.2,2.8,7.2,6.4v7.4c0,1.4,0.1,2.8,0.2,3.8H73.9z M92.2,71.2h-0.5L88,63.1H88v8.1H82V46.4H88v14.5H88l3.9-6.9h5.9l-4.8,7.9
				l3,5.3l2.2,4H92.2z M107.5,71.6c-3.3,0-5.5-1.8-5.5-5v-4.2V58h-2.9v-4h2.9v-3.6l5.9-1.8V54h3.3v3.3V58h-1.6h-1.7v0.8v6.5
				c0,1.5,0.9,2.1,1.9,2.1c0.6,0,1.1-0.1,1.4-0.3l0.2,4C110.7,71.3,109.2,71.6,107.5,71.6z"/>
			<path class="st2" d="M112.6,104.1c-1.1-1.2-2.5-1.8-4-2.2c-0.2-0.1-0.4-0.1-0.7-0.2c0.5-0.1,0.8-0.2,1.1-0.4
				c1.3-0.5,2.5-1.1,3.4-2.3c1.5-2,1.8-4.3,1.5-6.7c-0.4-2.6-1.9-4.3-4.3-5.3c-0.4-0.2-0.9-0.3-1.4-0.5c-1.5-0.4-3.1-0.5-4.6-0.5
				c-3.9,0-7.7,0-11.6,0h-0.4v17.4v14.9H92c4,0,8.1,0,12.1,0c1.3,0,2.6-0.1,3.9-0.5c2.6-0.7,4.7-2.2,5.7-4.7
				c0.8-1.8,0.9-3.8,0.5-5.7C114,106.3,113.5,105.1,112.6,104.1z M99.9,92.1C99.9,92.1,99.9,92.1,99.9,92.1c0-0.1,0-0.1,0.1-0.2
				c1.1,0.1,2.2,0,3.3,0.2c1.5,0.3,2.2,1.4,2.3,2.9c0,0.5,0,1.1-0.1,1.6c-0.3,1.3-1.3,2.1-2.5,2.3c-0.9,0.1-1.8,0.1-2.7,0.2
				c-0.2,0-0.3,0-0.3-0.3C99.8,96.6,99.8,94.4,99.9,92.1z M105.8,110.3c-0.4,1.2-1.4,1.9-2.7,2.1c-1.1,0.1-2.2,0-3.3,0v-7.5
				c1.2,0.1,2.5,0,3.6,0.2c1.5,0.2,2.3,1.4,2.5,2.7C106.1,108.6,106.1,109.5,105.8,110.3z"/>
			<path class="st2" d="M143.4,86.1c-2.5,0-5.1,0-7.6,0c-0.5,0-0.5,0-0.5,0.5c0,6.7,0,13.3,0,20c0,1-0.1,2-0.3,3
				c-0.2,0.9-0.5,1.8-1.4,2.3c-0.6,0.4-1.3,0.5-2,0.6c-1.6,0-2.6-0.6-3.3-2.1c-0.4-1.1-0.6-2.3-0.6-3.4c0-6.8,0-13.6,0-20.4v-0.5
				c-0.1,0-0.2,0-0.2,0c-2.7,0-5.5,0-8.3,0v0.5c0,6.8,0,13.6,0,20.4c0,1.6,0.2,3.2,0.8,4.8c0.7,2,1.7,3.7,3.4,4.9
				c2,1.5,4.3,2.2,6.8,2.3c1.9,0.1,3.8,0.1,5.7-0.4c3.1-0.9,5.5-2.6,6.9-5.6c0.9-2,1.2-4.2,1.2-6.4c0-6.6,0-13.3,0-19.9
				C143.8,86.2,143.8,86.1,143.4,86.1z"/>
			<path class="st2" d="M166.6,101c-1.2-0.7-2.6-1.3-3.8-1.9c-1.3-0.7-2.7-1.3-4-2c-1-0.5-1.3-1.5-1.3-2.6c0.1-1.2,0.7-2,1.8-2.4
				c0.7-0.2,1.4-0.4,2.1-0.4c1.5-0.1,2.9,0.2,4.3,0.6c0.9,0.3,1.7,0.6,2.6,0.9c0.1-1.3,0.2-2.7,0.2-4c0-0.6,0-1.2,0.1-1.8
				c0.1-0.4,0-0.6-0.4-0.7c-1.9-0.6-3.8-0.9-5.8-1.1c-2-0.1-4-0.1-6,0.4c-2.3,0.6-4.4,1.6-5.9,3.5c-1.1,1.3-1.7,2.9-1.8,4.5
				c-0.1,1.1,0,2.3,0.1,3.4c0.3,2.2,1.3,4,3.1,5.3c1.4,1,2.9,1.7,4.4,2.3c1.2,0.5,2.4,1,3.6,1.6c1.8,1,1.7,3.3,0.8,4.5
				c-0.7,1-1.8,1.3-2.9,1.4c-1.9,0.1-3.8-0.2-5.6-0.8c-0.9-0.3-1.7-0.7-2.6-1c-0.2,2.3-0.3,4.6-0.5,7c0.1,0,0.2,0.1,0.3,0.1
				c3,0.7,6.1,1.3,9.2,1.1c1.7-0.1,3.3-0.3,4.8-0.8c2.5-0.9,4.6-2.3,5.8-4.8c1-2.1,1.3-4.3,1-6.6C170.1,104.2,168.8,102.3,166.6,101
				z"/>
		</g>
	</g>
</g>
</svg>
