<svg width="21" height="21" xmlns="http://www.w3.org/2000/svg"><g id="ferry-small"><path fill-rule="evenodd" clip-rule="evenodd" fill="#fff" d="M10.516.057c5.728 0 10.402 4.674 10.402 10.401 0 5.729-4.674 10.403-10.402 10.403-5.729 0-10.402-4.674-10.402-10.403 0-5.728 4.673-10.401 10.402-10.401"/><path fill="#00A5DF" d="M7.154 3.149h8.884l-.752 2.738h-4.994l-.82 3.195h4.622l-.79 2.673h-4.62l-1.286 4.197c1.966.309 3.22.873 4.462 1.469 1.645.788 4.455.389 6.818-.53 1.401-1.773 2.24-4.007 2.24-6.432 0-5.728-4.674-10.401-10.402-10.401-5.729 0-10.402 4.674-10.402 10.401 0 2.144.654 4.141 1.774 5.799.48-.206 1.026-.344 1.676-.389l3.59-12.72zm4.052 15.59c-2.337-1.024-3.754-1.586-6.078-1.639-.838-.019-1.604.01-2.385.255 1.908 2.148 4.686 3.506 7.773 3.506 2.114 0 4.082-.638 5.727-1.728-1.79.379-3.59.241-5.037-.394z"/></g></svg>
