<svg xmlns="http://www.w3.org/2000/svg" viewBox="0 0 32 32"><g id="Ebene_2" data-name="Ebene 2"><g id="Ebene_1-2" data-name="Ebene 1"><rect width="32" height="32" fill="#dd0b2f"/><path d="M18.9,11.8h2.01v1.38a2.719,2.719,0,0,1,2.43-1.59,1.758,1.758,0,0,1,1.13.36A2.972,2.972,0,0,1,25.24,13a2.567,2.567,0,0,1,2.38-1.41,1.847,1.847,0,0,1,1.62.79,3.47,3.47,0,0,1,.5,2.02v4.81H27.56V15.39c0-1.13-.32-1.7-.97-1.7a1,1,0,0,0-.92.68,3.158,3.158,0,0,0-.25,1.33v3.5H23.23V15.16c0-.99-.32-1.48-.96-1.48a1.013,1.013,0,0,0-.94.76,3.694,3.694,0,0,0-.24,1.4V19.2H18.9V11.8m-3.73,4.06a1.611,1.611,0,0,0-.87.23,1.005,1.005,0,0,0-.19,1.53.829.829,0,0,0,.62.25,1.107,1.107,0,0,0,.99-.6,2.53,2.53,0,0,0,.32-1.3l-.01-.04C15.54,15.88,15.25,15.86,15.17,15.86Zm.84-1.28v-.21a1.018,1.018,0,0,0-.51-.89,1.785,1.785,0,0,0-.95-.28,5.384,5.384,0,0,0-1.91.57V12.1a5.613,5.613,0,0,1,2.38-.47q3.045,0,3.04,3.19v4.4H16.18V18.09a4.924,4.924,0,0,1-.94,1,2.094,2.094,0,0,1-1.24.32,2.081,2.081,0,0,1-1.6-.71,2.6,2.6,0,0,1-.64-1.83,2,2,0,0,1,1.58-2.07A10.788,10.788,0,0,1,16.01,14.58ZM9.13,11.8l.06,1.51a3.412,3.412,0,0,1,.68-1.18,1.556,1.556,0,0,1,1.14-.42c.09,0,.32.03.69.07l-.05,2.18a2.9,2.9,0,0,0-.79-.1c-1,0-1.5.77-1.5,2.3v3.07H7.17V13.7c0-.31-.02-.95-.06-1.91H9.13ZM1.3,9.37H7.71v1.97H5.66V19.2H3.4V11.34H1.3Z" fill="#fff" fill-rule="evenodd"/></g></g></svg>
