<svg xmlns="http://www.w3.org/2000/svg" viewBox="0 0 32 32"><g id="Ebene_2" data-name="Ebene 2"><g id="Ebene_1-2" data-name="Ebene 1"><path d="M16,0A16,16,0,1,1,0,16,16.034,16.034,0,0,1,16,0" fill="#005d79" fill-rule="evenodd"/><path d="M28.43,12.85a7.084,7.084,0,0,0-2.25-.56q-1.68,0-1.68,1.08c0,.46.39.84,1.18,1.15a10.3,10.3,0,0,1,2.21,1.02,3.178,3.178,0,0,1,1.19,2.7,3.2,3.2,0,0,1-1.33,2.8,4.846,4.846,0,0,1-2.85.78,10.854,10.854,0,0,1-3.09-.57l.23-2.38a6.584,6.584,0,0,0,2.69.7c1.08,0,1.62-.37,1.62-1.12,0-.51-.4-.93-1.19-1.27a16.466,16.466,0,0,1-2.2-1.03,2.906,2.906,0,0,1-1.19-2.49A3.1,3.1,0,0,1,23.1,10.9a4.932,4.932,0,0,1,2.83-.73,11.091,11.091,0,0,1,2.7.45l-.2,2.23M12.35,10.47h2.62v7.04a2.58,2.58,0,0,0,.4,1.52,1.476,1.476,0,0,0,1.26.62c1.03,0,1.55-.81,1.55-2.43V10.47h2.63V17.6a4.05,4.05,0,0,1-1.28,3.2,4.48,4.48,0,0,1-3.05,1.02,4.185,4.185,0,0,1-2.85-1,3.709,3.709,0,0,1-1.28-2.96Zm-4.8,9.04a1.2,1.2,0,0,0,.88-.38,1.274,1.274,0,0,0,.38-.94c0-.84-.55-1.27-1.65-1.27H6.06V19.5H7.55Zm-.53-4.57a1.771,1.771,0,0,0,1.02-.28A1.129,1.129,0,0,0,8.1,12.8a1.521,1.521,0,0,0-.93-.3H6.05v2.45h.97ZM3.47,10.45H8a3.514,3.514,0,0,1,2.13.62,2.454,2.454,0,0,1,1,2.12,3.087,3.087,0,0,1-.41,1.71,2.761,2.761,0,0,1-1.33.99,2.506,2.506,0,0,1,2.02,2.72q0,2.97-4.07,2.97H3.46V10.45Z" fill="#fff" fill-rule="evenodd"/></g></g></svg>
