<svg xmlns="http://www.w3.org/2000/svg" viewBox="0 0 32 32"><g id="Ebene_2" data-name="Ebene 2"><g id="Ebene_1-2" data-name="Ebene 1"><path d="M7.84,0H24.16A7.866,7.866,0,0,1,32,7.84V24.16A7.859,7.859,0,0,1,24.16,32H7.84A7.866,7.866,0,0,1,0,24.16V7.84A7.866,7.866,0,0,1,7.84,0" fill="#009551" fill-rule="evenodd"/><path d="M26.21,13.34V11.88H28.6v7.83a5.5,5.5,0,0,1-1.12,3.77,4.242,4.242,0,0,1-3.34,1.26,8.276,8.276,0,0,1-1.6-.15,6.806,6.806,0,0,1-1.43-.45l.14-2.31a5.178,5.178,0,0,0,1.26.56,4.7,4.7,0,0,0,1.26.19,2.221,2.221,0,0,0,1.7-.62,2.462,2.462,0,0,0,.59-1.76v-.84a3.535,3.535,0,0,1-1.13,1.12,2.651,2.651,0,0,1-1.41.37,2.838,2.838,0,0,1-2.41-1.26,5.511,5.511,0,0,1-.92-3.32,5.477,5.477,0,0,1,.95-3.35,2.936,2.936,0,0,1,2.47-1.28,2.536,2.536,0,0,1,1.44.42,4.059,4.059,0,0,1,1.16,1.28m-1.78.62a1.3,1.3,0,0,0-1.12.63,2.925,2.925,0,0,0-.42,1.65,2.881,2.881,0,0,0,.42,1.65,1.286,1.286,0,0,0,1.12.62,1.337,1.337,0,0,0,1.13-.62,2.805,2.805,0,0,0,.43-1.65,2.848,2.848,0,0,0-.43-1.65A1.324,1.324,0,0,0,24.43,13.96ZM11.16,11.89h2.58v4.56a3.155,3.155,0,0,0,.32,1.59,1.04,1.04,0,0,0,.96.52,1.193,1.193,0,0,0,1.11-.71,4.626,4.626,0,0,0,.37-2.09V11.89h2.59v9.04H16.74V19.24a3.523,3.523,0,0,1-1.15,1.38,2.828,2.828,0,0,1-1.59.47,2.445,2.445,0,0,1-2.12-1.02,5.123,5.123,0,0,1-.73-2.97V11.89ZM2.63,8.73h7.73v2.58L5.24,18.57h5.12v2.35H2.48V18.2l5.05-7.12H2.63Z" fill="#fff" fill-rule="evenodd"/></g></g></svg>
