<svg xmlns="http://www.w3.org/2000/svg" width="52" height="52" viewBox="0 0 52 52"><path fill="#a71680" d="M25.96 8.97c-4.24 0-8.32 1.61-11.41 4.51H12.8V8.77c0-.85-.62-1.76-1.76-1.76H8.3c-.85 0-1.76.62-1.76 1.76v4.72H1.76c-.85 0-1.76.63-1.76 1.77v2.89c0 .85.62 1.76 1.76 1.76h4.78v4.49c0 .85.62 1.76 1.76 1.76h.92A16.79 16.79 0 0 0 25.96 42.5a16.78 16.78 0 0 0 16.76-16.76A16.8 16.8 0 0 0 25.96 8.97z"/><g fill="#fff"><path d="M38.98 22.44a7.66 7.66 0 0 0-2.36-.6c-1.18 0-1.76.38-1.76 1.14 0 .48.41.88 1.24 1.2 1.22.46 2 .81 2.3 1.06.84.64 1.26 1.59 1.26 2.83 0 1.3-.47 2.28-1.4 2.93a5.1 5.1 0 0 1-2.98.81c-.87 0-1.95-.2-3.24-.6l.25-2.48c.87.44 1.84.7 2.82.74 1.13 0 1.7-.4 1.7-1.17 0-.53-.42-.98-1.25-1.32-.8-.31-1.57-.67-2.31-1.08A3.03 3.03 0 0 1 32 23.3c0-1.3.46-2.27 1.39-2.9a5.2 5.2 0 0 1 2.97-.77c.7 0 1.65.16 2.82.48l-.2 2.33zm-16.85-2.5h2.74v7.37c0 .66.15 1.2.42 1.6.31.43.75.65 1.33.65 1.08 0 1.62-.86 1.62-2.56v-7.06H31v7.46c0 1.44-.45 2.56-1.34 3.35a4.68 4.68 0 0 1-3.2 1.07 4.4 4.4 0 0 1-3-1.05 3.9 3.9 0 0 1-1.33-3.1v-7.74zM17.1 29.4c.35 0 .65-.14.92-.4s.39-.6.39-.99c0-.88-.58-1.32-1.73-1.32h-1.15v2.7h1.57zm-.56-4.8c.38.02.75-.08 1.07-.28.36-.24.55-.57.55-1.02 0-.39-.17-.71-.49-.94-.28-.21-.6-.32-.97-.32h-1.17v2.56h1zm-3.71-4.7h4.74c.9 0 1.65.22 2.23.65.7.52 1.1 1.35 1.05 2.22a3.2 3.2 0 0 1-.43 1.79c-.35.48-.84.84-1.4 1.03 1.42.36 2.12 1.31 2.12 2.85 0 2.08-1.42 3.12-4.26 3.12h-4.06V19.9z"/><path d="M12.9 15.15c-.85 0-1.76-.62-1.76-1.76V8.67H8.22v4.72c0 .86-.62 1.76-1.76 1.76h-4.8v3.07h4.8c.85 0 1.76.62 1.76 1.76v4.49h2.93v-4.5c0-.85.62-1.75 1.76-1.75h5.18v-3.07H12.9z"/></g></svg>
