<svg xmlns="http://www.w3.org/2000/svg" viewBox="0 0 31.98 31.98"><g id="Ebene_2" data-name="Ebene 2"><g id="Ebene_1-2" data-name="Ebene 1"><path d="M15.99,0A15.99,15.99,0,1,0,31.98,15.99,16.023,16.023,0,0,0,15.99,0" fill="#009551" fill-rule="evenodd"/><path d="M25.67,6.31c0,4.74-.04,4.66-.04,4.66C23.29,8.68,14.77,5.05,13.08,7.86c-1.99,3.31,4.32,4.53,9.48,6.29,6.15,2.1,6.06,9.19,1.58,12.61-5.93,4.52-13.23,2.38-18.69-1.71V20.16c1.3,1.52,3.44,2.52,6.47,3.61,1.72.62,6.13,1.59,7.26-.41,1.52-2.69-2.43-3.54-4.02-3.83a16.155,16.155,0,0,1-6.35-2.44c-4.64-3.07-4.42-9.04.11-12.23C14,1.27,21.12,2.52,25.67,6.31" fill="#fff" fill-rule="evenodd"/></g></g></svg>
