<?xml version="1.0" encoding="utf-8"?>
<!-- Generator: Adobe Illustrator 23.0.6, SVG Export Plug-In . SVG Version: 6.00 Build 0)  -->
<svg version="1.1" id="Ebene_1" xmlns="http://www.w3.org/2000/svg" xmlns:xlink="http://www.w3.org/1999/xlink" x="0px" y="0px"
	 viewBox="0 0 237.7 197.1" style="enable-background:new 0 0 237.7 197.1;" xml:space="preserve">
<style type="text/css">
	.st0{fill:#FFFFFF;}
	.st1{fill:#A41977;}
</style>
<g>
	<path class="st0" d="M137,82.9L148.8,67c0.9-1.2,0.9-2.8,0-4L137,47.2c-1.3-1.8-3.4-2.8-5.7-2.8H47.7c-1.8,0-3.3,1.5-3.3,3.3v34.8
		c0,1.8,1.5,3.3,3.3,3.3h83.6C133.5,85.8,135.6,84.7,137,82.9z"/>
	<path class="st1" d="M153.2,59.2l-11.6-15.5c-2.4-3.2-6.3-5.1-10.3-5.1H47.7c-5,0-9.1,4.1-9.1,9.1v34.8c0,5,4.1,9.1,9.1,9.1h55.6
		c-1.9,5.3-3.1,11-3.1,17c0,27.3,22.2,49.5,49.5,49.5c27.3,0,49.5-22.2,49.5-49.5C199.2,82.4,178.9,61,153.2,59.2z M47.7,85.8
		c-1.8,0-3.3-1.5-3.3-3.3V47.7c0-1.8,1.5-3.3,3.3-3.3h83.6c2.2,0,4.3,1.1,5.7,2.8l11.9,15.9c0.9,1.2,0.9,2.8,0,4L137,82.9
		c-1.3,1.8-3.4,2.8-5.7,2.8H47.7z"/>
</g>
<path class="st1" d="M188.9,93.2c-0.1,0.6-0.1,1.2-0.1,1.8c-0.1,1.4-0.2,2.7-0.2,4.1c-0.9-0.3-1.8-0.6-2.7-0.9
	c-0.7-0.2-1.4-0.4-2.1-0.5c-0.2,0-0.4,0-0.7-0.1c-0.5-0.1-1.1-0.1-1.7-0.1c-0.4,0-0.7,0.1-1.1,0.1c-0.4,0.1-0.7,0.2-1,0.3
	c-0.6,0.2-1,0.5-1.3,0.9c-0.3,0.4-0.5,0.9-0.5,1.5c-0.1,1.1,0.3,2.1,1.3,2.6c1.3,0.7,2.7,1.4,4.1,2.1c1.3,0.6,2.7,1.2,3.9,1.9
	c2.2,1.3,3.6,3.3,3.9,5.9c0.3,2.3,0,4.6-1,6.7c-1.2,2.5-3.3,4-5.9,4.9c-1.6,0.5-3.2,0.8-4.9,0.9c-0.3,0-0.6,0-0.9,0
	c-0.3,0-0.6,0-0.9,0c-0.3,0-0.6,0-0.9,0c-0.5,0-0.9-0.1-1.4-0.1c-0.3,0-0.6-0.1-0.9-0.1c-0.5-0.1-1-0.2-1.5-0.3
	c-0.2,0-0.5-0.1-0.7-0.1c-0.7-0.1-1.5-0.3-2.2-0.5c-0.1,0-0.2-0.1-0.3-0.1c0.2-2.4,0.3-4.8,0.5-7.1c0.9,0.4,1.8,0.7,2.7,1
	c0.7,0.2,1.4,0.4,2.1,0.6c0.1,0,0.3,0.1,0.4,0.1c0.7,0.1,1.4,0.2,2.1,0.2c0.4,0,0.7,0,1.1,0c1.2-0.1,2.3-0.4,3-1.4
	c0.1-0.2,0.2-0.3,0.3-0.5c0.3-0.8,0.4-1.7,0.2-2.5c-0.2-0.6-0.6-1.2-1.3-1.6c-1.2-0.6-2.4-1.1-3.6-1.6c-0.8-0.3-1.6-0.6-2.3-1
	c-0.8-0.4-1.5-0.8-2.2-1.3c-1.8-1.4-2.9-3.2-3.2-5.4c-0.1-1.1-0.2-2.3-0.1-3.4c0.1-1.7,0.7-3.3,1.8-4.6c1.5-1.9,3.6-3,6-3.5
	c0.6-0.2,1.3-0.3,1.9-0.3c0.2,0,0.4,0,0.5-0.1c0.5,0,1-0.1,1.5-0.1c0.1,0,0.2,0,0.3,0c0.1,0,0.1,0,0.2,0c0.6,0,1.1,0,1.7,0.1
	c2,0.1,4,0.4,5.9,1.1c0.2,0.1,0.3,0.1,0.4,0.3C188.9,92.9,188.9,93,188.9,93.2C188.9,93.2,188.9,93.2,188.9,93.2z"/>
<path class="st1" d="M110.6,100.9c0-1,0-1.9,0-2.9c0-2,0-4.1,0-6.1c0.2,0,0.3,0,0.4,0c2.3,0,4.6,0,6.9,0c1.6,0,3.2,0,4.8,0
	c2.1,0,4.1,0.2,6.1,1c1.8,0.7,3.1,1.9,3.9,3.5c0.2,0.5,0.4,1.1,0.5,1.8c0.2,1.2,0.2,2.4,0,3.6c-0.2,1.2-0.7,2.2-1.5,3.3
	c-0.9,1.1-2.1,1.8-3.5,2.3c-0.3,0.1-0.7,0.2-1.1,0.4c0.3,0.1,0.5,0.1,0.7,0.2c1.5,0.4,3,1,4.1,2.2c0.9,1,1.5,2.2,1.7,3.5
	c0.4,2,0.2,3.9-0.5,5.8c-1.1,2.6-3.2,4.1-5.8,4.8c-0.6,0.2-1.3,0.3-1.9,0.4c-0.7,0.1-1.3,0.1-2,0.1c-1.8,0-3.6,0-5.4,0
	c-2.3,0-4.6,0-6.9,0c-0.2,0-0.3,0-0.5,0C110.6,116.8,110.6,108.8,110.6,100.9z"/>
<path class="st1" d="M153.7,125.2c-0.2,0-0.3,0-0.5,0.1c-0.5,0.1-1,0.1-1.5,0.1c-0.1,0-0.1,0-0.2,0c0,0-0.1,0-0.1,0
	c-0.5,0-1,0-1.5-0.1c-2.5-0.2-4.8-0.8-6.9-2.4c-1.7-1.3-2.8-3-3.4-5c-0.5-1.6-0.8-3.2-0.8-4.8c0-6.9,0-13.8,0-20.7
	c0-0.1,0-0.3,0-0.5c0.9,0,1.8,0,2.8,0c1.9,0,3.8,0,5.7,0c0.1,0,0.1,0,0.2,0c0,0.2,0,0.3,0,0.5c0,6.9,0,13.8,0,20.8
	c0,1.2,0.1,2.4,0.6,3.5c0.2,0.4,0.3,0.7,0.5,1c0.1,0.1,0.2,0.1,0.2,0.2c0.2,0.2,0.3,0.3,0.5,0.4c0.1,0.1,0.2,0.1,0.4,0.2
	c0.2,0.1,0.3,0.2,0.5,0.2c0.1,0,0.3,0,0.5,0.1c0.2,0,0.4,0.1,0.7,0.1c0.4,0,0.7,0,1.1-0.1c0.3-0.1,0.7-0.2,1-0.4
	c0.2-0.1,0.4-0.3,0.5-0.5c0.5-0.5,0.7-1.2,0.8-1.9c0.2-1,0.3-2.1,0.3-3.1c0-6.8,0-13.6,0-20.3c0-0.3,0-0.4,0.1-0.5
	c0.1-0.1,0.2-0.1,0.5-0.1c2.6,0,5.2,0,7.7,0c0,0,0,0,0,0c0.1,0,0.2,0,0.2,0.1c0,0,0.1,0,0.1,0c0.1,0.1,0.1,0.2,0.1,0.4
	c0,6.8,0,13.5,0,20.3c0,2.2-0.3,4.4-1.2,6.5c-1.4,3.1-3.8,4.9-7,5.7C154.9,125,154.3,125.1,153.7,125.2z"/>
<g>
	<path class="st0" d="M123.4,124.8c0.7,0,1.3,0,2-0.1c0.7-0.1,1.3-0.2,1.9-0.4c2.7-0.7,4.7-2.2,5.8-4.8c0.8-1.9,0.9-3.8,0.5-5.8
		c-0.2-1.3-0.8-2.5-1.7-3.5c-1.1-1.2-2.6-1.8-4.1-2.2c-0.2-0.1-0.4-0.1-0.7-0.2c0.5-0.1,0.8-0.2,1.1-0.4c1.4-0.5,2.6-1.2,3.5-2.3
		c0.8-1,1.2-2.1,1.5-3.3c0.2-1.2,0.2-2.4,0-3.6c-0.1-0.7-0.3-1.2-0.5-1.8c-0.7-1.6-2-2.8-3.9-3.5c-2-0.8-4-1-6.1-1
		c-1.6,0-3.2,0-4.8,0c-2.3,0-4.6,0-6.9,0c-0.1,0-0.3,0-0.4,0c0,2,0,4.1,0,6.1c0,1,0,1.9,0,2.9c0,8,0,15.9,0,23.9c0.2,0,0.3,0,0.5,0
		c2.3,0,4.6,0,6.9,0C119.8,124.8,121.6,124.8,123.4,124.8z M125.4,115.2c0,0.4-0.1,0.9-0.2,1.3c-0.1,0.3-0.3,0.6-0.4,0.8
		c-0.5,0.7-1.3,1.1-2.3,1.3c-0.5,0.1-1.1,0.1-1.6,0.1c-0.6,0-1.2,0-1.8,0c0-2.5,0-5,0-7.6c1.3,0.1,2.5,0.1,3.7,0.2
		c1.5,0.2,2.3,1.4,2.5,2.7C125.3,114.3,125.4,114.7,125.4,115.2z M124.8,101c0,0.5,0,1.1-0.1,1.6c-0.1,0.3-0.2,0.6-0.4,0.9
		c-0.5,0.8-1.2,1.2-2.2,1.4c-0.9,0.1-1.9,0.1-2.8,0.2c-0.1,0-0.1,0-0.1,0c0,0-0.1,0-0.1,0c0,0-0.1-0.1-0.1-0.2c0-2.3,0-4.5,0-6.8
		c0,0,0,0,0-0.1c0,0,0-0.1,0-0.1c1.1,0.1,2.3,0,3.4,0.3C123.9,98.4,124.7,99.5,124.8,101z"/>
	<path class="st0" d="M147.1,91.9c-1.9,0-3.8,0-5.7,0c-0.9,0-1.8,0-2.8,0c0,0.2,0,0.3,0,0.5c0,6.9,0,13.8,0,20.7
		c0,1.6,0.2,3.3,0.8,4.8c0.7,2,1.7,3.7,3.4,5c2,1.5,4.4,2.2,6.9,2.4c0.5,0,1,0.1,1.5,0.1c0,0,0.1,0,0.1,0c0.1,0,0.1,0,0.2,0
		c0.5,0,1,0,1.5-0.1c0.2,0,0.3,0,0.5-0.1c0.6-0.1,1.2-0.2,1.8-0.4c3.2-0.9,5.6-2.7,7-5.7c0.9-2.1,1.2-4.3,1.2-6.5
		c0-6.8,0-13.5,0-20.3c0-0.2,0-0.3-0.1-0.4c0,0-0.1,0-0.1,0c-0.1,0-0.1-0.1-0.2-0.1c0,0,0,0,0,0c-2.6,0-5.2,0-7.7,0
		c-0.3,0-0.4,0-0.5,0.1c-0.1,0.1-0.1,0.2-0.1,0.5c0,6.8,0,13.6,0,20.3c0,1-0.1,2.1-0.3,3.1c-0.1,0.7-0.4,1.4-0.8,1.9
		c-0.2,0.2-0.3,0.3-0.5,0.5c-0.3,0.2-0.6,0.3-1,0.4c-0.3,0.1-0.7,0.1-1.1,0.1c-0.3,0-0.5,0-0.7-0.1c-0.2,0-0.3,0-0.5-0.1
		c-0.2,0-0.4-0.1-0.5-0.2c-0.1-0.1-0.2-0.1-0.4-0.2c-0.2-0.1-0.3-0.3-0.5-0.4c-0.1-0.1-0.2-0.1-0.2-0.2c-0.2-0.3-0.4-0.6-0.5-1
		c-0.5-1.1-0.6-2.3-0.6-3.5c0-6.9,0-13.8,0-20.8c0-0.2,0-0.3,0-0.5C147.2,91.9,147.1,91.9,147.1,91.9z"/>
	<path class="st0" d="M186.8,107c-1.3-0.7-2.6-1.3-3.9-1.9c-1.4-0.7-2.8-1.3-4.1-2.1c-1-0.6-1.4-1.5-1.3-2.6c0-0.6,0.2-1.1,0.5-1.5
		c0.2-0.2,0.3-0.4,0.6-0.5s0.5-0.3,0.8-0.4c0.3-0.1,0.7-0.2,1-0.3c0.4-0.1,0.7-0.1,1.1-0.1c0.6,0,1.1,0,1.7,0.1c0.2,0,0.4,0,0.7,0.1
		c0.7,0.1,1.4,0.3,2.1,0.5c0.9,0.3,1.8,0.6,2.7,0.9c0.1-1.3,0.2-2.7,0.2-4.1c0-0.6,0-1.2,0.1-1.8c0,0,0,0,0,0c0-0.2,0-0.3,0-0.5
		c-0.1-0.1-0.2-0.2-0.4-0.3c-1.9-0.7-3.9-1-5.9-1.1c-0.6,0-1.1-0.1-1.7-0.1c-0.1,0-0.1,0-0.2,0c-0.1,0-0.2,0-0.3,0
		c-0.5,0-1,0-1.5,0.1c-0.2,0-0.4,0-0.5,0.1c-0.6,0.1-1.3,0.2-1.9,0.3c-2.3,0.6-4.4,1.6-6,3.5c-1.1,1.3-1.7,2.9-1.8,4.6
		c-0.1,1.1,0,2.3,0.1,3.4c0.3,2.2,1.4,4.1,3.2,5.4c0.7,0.5,1.4,0.9,2.2,1.3c0.8,0.4,1.5,0.7,2.3,1c1.2,0.5,2.5,1,3.6,1.6
		c0.7,0.4,1.1,0.9,1.3,1.6c0.2,0.6,0.2,1.3,0,1.9c-0.1,0.2-0.1,0.4-0.2,0.6c-0.1,0.2-0.2,0.4-0.3,0.5c-0.7,1-1.8,1.3-3,1.4
		c-0.4,0-0.7,0-1.1,0c-0.7,0-1.4-0.1-2.1-0.2c-0.1,0-0.3-0.1-0.4-0.1c-0.7-0.1-1.4-0.3-2.1-0.6c-0.9-0.3-1.8-0.7-2.7-1
		c-0.2,2.3-0.3,4.7-0.5,7.1c0.1,0,0.2,0.1,0.3,0.1c0.7,0.2,1.5,0.3,2.2,0.5c0.2,0,0.5,0.1,0.7,0.1c0.5,0.1,1,0.2,1.5,0.3
		c0.3,0,0.6,0.1,0.9,0.1c0.5,0.1,0.9,0.1,1.4,0.1c0.3,0,0.6,0,0.9,0c0.3,0,0.6,0,0.9,0c0.3,0,0.6,0,0.9,0c1.7-0.1,3.3-0.3,4.9-0.9
		c2.6-0.9,4.7-2.4,5.9-4.9c1.1-2.1,1.3-4.4,1-6.7C190.4,110.3,189.1,108.3,186.8,107z"/>
</g>
<g>
	<path class="st1" d="M54.9,71.2c0.8,0.4,3,1.4,5.3,1.4c2.4,0,3.2-1,3.2-2.5c0-1.5-1-2-2.8-2.7l-1.4-0.5c-3.8-1.5-5-3.6-5-6.9
		c0-4.4,3.5-6.9,8.5-6.9c1.8,0,4,0.2,5.9,0.9l-0.3,4.6c-1.1-0.6-3-1.2-4.8-1.2c-1.9,0-3,0.8-3,2.2c0,1.2,0.6,1.7,2.7,2.7l2.8,1.3
		c2.1,1,3.9,2.4,3.9,5.9c0,5.1-3.7,7.7-9.1,7.7c-2.8,0-5-0.6-6.2-0.9L54.9,71.2z"/>
	<path class="st1" d="M85.1,64.2c-0.6-0.3-1.6-0.7-2.9-0.7c-2.2,0-3.9,1.4-3.9,4.6c0,2.6,0.9,4.6,3.8,4.6c1.5,0,3-0.6,3.3-0.8
		l0.2,4.3c-0.9,0.4-3.4,0.9-4.8,0.9c-6.3,0-8.6-4.3-8.6-9.1s2.3-9.1,8.6-9.1c2.5,0,4,0.6,4.7,0.8L85.1,64.2z"/>
	<path class="st1" d="M88.2,51.7h6v7.7c0,0.7-0.1,1.5-0.1,2.1h0.1c1-1.8,2.5-2.6,4.6-2.6c3,0,5.3,1.8,5.3,5.6v12.2h-6V66.3
		c0-1.7-0.5-2.5-1.6-2.5c-1.5,0-2.2,1.6-2.2,3.4v9.5h-6V51.7z"/>
	<path class="st1" d="M122.8,73.9c0,1.3,0.1,2.4,0.2,2.9h-5.6c-0.1-0.7-0.1-1.9-0.1-2.9h-0.1c-0.3,0.9-1.5,3.3-4.9,3.3
		c-3,0-5.3-1.8-5.3-5.6V59.4h6v10.4c0,1.7,0.5,2.5,1.7,2.5c1.7,0,2.1-1.6,2.1-2.9v-10h6V73.9z"/>
	<path class="st1" d="M126.4,51.7h6v25h-6V51.7z"/>
</g>
</svg>
